<?xml version="1.0" encoding="UTF-8" standalone="no"?>
<!--part of the rodentia icon theme by sixsixfive released under CC0 (https://creativecommons.org/publicdomain/zero/1.0/) on openclipart-->
<svg xmlns="http://www.w3.org/2000/svg" xmlns:xlink="http://www.w3.org/1999/xlink" viewBox="0 0 48 48">
 <defs id="0">
  <linearGradient id="6">
   <stop id="C" stop-color="#fff"/>
   <stop id="D" offset="1" stop-color="#fff" stop-opacity="0"/>
  </linearGradient>
  <linearGradient id="7">
   <stop id="E" stop-color="#fff" stop-opacity="0.8"/>
   <stop id="F" offset="1" stop-color="#fff" stop-opacity="0"/>
  </linearGradient>
  <linearGradient id="8">
   <stop id="G" stop-color="#2e3436" stop-opacity="0.5"/>
   <stop id="H" offset="1" stop-color="#2e3436" stop-opacity="0.015"/>
  </linearGradient>
  <radialGradient cx="24.431" cy="52.28" r="21.578" id="9" xlink:href="#8" gradientUnits="userSpaceOnUse" gradientTransform="matrix(1,0,0,0.2975207,0,36.725592)"/>
  <linearGradient y1="4.076" x2="0" y2="36.737" id="A" xlink:href="#7" gradientUnits="userSpaceOnUse"/>
  <linearGradient x1="1.586" y1="-16.371" x2="24.733" y2="27.934" id="B" xlink:href="#6" gradientUnits="userSpaceOnUse"/>
 </defs>
 <path d="m 46.009577,52.279961 a 21.578135,6.4199409 0 1 1 -43.1562693,0 21.578135,6.4199409 0 1 1 43.1562693,0 z" transform="matrix(1.112237,0,0,0.6111111,-3.173554,10.787839)" id="1" opacity="0.8" fill="url(#9)"/>
 <path d="m -12.902802,20.406656 a 14.923724,17.48874 0 1 1 -29.847449,0 14.923725,17.48874 0 1 1 29.847449,0 z" transform="matrix(1.2859056,0,0,1.0973061,59.782286,1.6076516)" id="2" fill="#7c0000"/>
 <path d="m -27.8125,4.03125 c -7.531664,0 -13.812499,7.235799 -13.8125,16.375 0,9.139201 6.280837,16.375002 13.8125,16.375 7.531664,0 13.78125,-7.233399 13.78125,-16.375 0,-9.141601 -6.249586,-16.375 -13.78125,-16.375 z" transform="matrix(1.2859056,0,0,1.0973061,59.782286,1.6076516)" id="3" fill="#c00"/>
 <path d="m -27.8125,4.53125 c -7.209936,0 -13.312499,6.965945 -13.3125,15.875 0,8.909055 6.102566,15.875002 13.3125,15.875 7.210042,0 13.28125,-6.96234 13.28125,-15.875 0,-8.91266 -6.071208,-15.875 -13.28125,-15.875 z" transform="matrix(1.2859056,0,0,1.0973061,59.782286,1.6076516)" id="4" opacity="0.8" fill="none" stroke="url(#A)" stroke-width="0.842"/>
 <path d="M 24.03125,6.03125 C 14.346242,6.0312498 6.2500013,13.971499 6.25,24 c 0,0.0106 -1.8e-5,0.02066 0,0.03125 11.069064,-4.32648 22.427835,-6.570935 33.40625,-8.5 -3.000395,-5.6852283 -8.908826,-9.5 -15.625,-9.5 z" id="5" opacity="0.6" fill="url(#B)"/>
</svg>
